<svg width="160" height="160" viewBox="0 0 160 160" xmlns="http://www.w3.org/2000/svg">
  <defs>
    <linearGradient id="lavenderStem" x1="0" y1="0" x2="0" y2="1">
      <stop offset="0" stop-color="#7EF5C9"/>
      <stop offset="1" stop-color="#2F7B5A"/>
    </linearGradient>
    <linearGradient id="lavenderPetal" x1="0" y1="0" x2="0" y2="1">
      <stop offset="0" stop-color="#F0E7FF"/>
      <stop offset="0.7" stop-color="#C4A5FF"/>
      <stop offset="1" stop-color="#7B5CE3"/>
    </linearGradient>
  </defs>
  <g fill="none" fill-rule="evenodd">
    <rect x="78" y="70" width="8" height="70" rx="4" fill="url(#lavenderStem)"/>
    <path d="M80 38c-10 14-14 24-12 32 2 8 8 14 12 18 4-4 10-10 12-18 2-8-2-18-12-32z" fill="url(#lavenderPetal)"/>
    <path d="M60 84c8-6 12-6 18 0-6 2-10 6-16 12-2-4-4-8-8-10 4-2 4-2 6-2z" fill="#72F0C4" fill-opacity="0.65"/>
    <path d="M100 86c4 0 6 0 10 4-4 0-6 2-8 6-4-4-6-8-12-8 4-4 6-4 10-2z" fill="#72F0C4" fill-opacity="0.65"/>
  </g>
</svg>
