<svg width="160" height="160" viewBox="0 0 160 160" xmlns="http://www.w3.org/2000/svg">
  <defs>
    <radialGradient id="roseBloom" cx="50%" cy="35%" r="58%">
      <stop offset="0" stop-color="#FFE6E6" stop-opacity="0.85"/>
      <stop offset="0.55" stop-color="#FF4D6D"/>
      <stop offset="1" stop-color="#8B1E3A"/>
    </radialGradient>
    <linearGradient id="mintStem" x1="0" y1="0" x2="0" y2="1">
      <stop offset="0" stop-color="#7EF5C9"/>
      <stop offset="1" stop-color="#2F7B5A"/>
    </linearGradient>
    <linearGradient id="leaf" x1="0" y1="0" x2="1" y2="1">
      <stop offset="0" stop-color="#72F0C4"/>
      <stop offset="1" stop-color="#2A6E4D"/>
    </linearGradient>
  </defs>
  <g fill="none" fill-rule="evenodd">
    <path d="M80 92c16-20 28-30 36-48-24 4-34 16-36 30-2-14-12-26-36-30 8 18 20 28 36 48z" fill="#FF7F9F" fill-opacity="0.65"/>
    <circle cx="80" cy="64" r="44" fill="url(#roseBloom)"/>
    <rect x="76" y="84" width="8" height="64" rx="4" fill="url(#mintStem)"/>
    <path d="M58 112c12-10 18-10 28 0-10 1-18 6-28 16-2-6-4-10-12-14 6-4 8-2 12-2z" fill="url(#leaf)"/>
    <path d="M102 106c10-2 16 0 24 8-10 0-14 4-18 10-6-6-10-10-20-12 6-6 10-8 14-6z" fill="url(#leaf)"/>
  </g>
</svg>
