<svg width="160" height="160" viewBox="0 0 160 160" xmlns="http://www.w3.org/2000/svg">
  <defs>
    <linearGradient id="beanVine" x1="0" y1="0" x2="0" y2="1">
      <stop offset="0" stop-color="#7ED958"/>
      <stop offset="1" stop-color="#1F6B2C"/>
    </linearGradient>
    <linearGradient id="beanLeaf" x1="0" y1="0" x2="1" y2="1">
      <stop offset="0" stop-color="#A8FF7C"/>
      <stop offset="1" stop-color="#3FA64A"/>
    </linearGradient>
    <radialGradient id="beanGlow" cx="50%" cy="20%" r="65%">
      <stop offset="0" stop-color="#E9FFD9" stop-opacity="0.8"/>
      <stop offset="1" stop-color="#78C754" stop-opacity="0"/>
    </radialGradient>
  </defs>
  <g fill="none" fill-rule="evenodd">
    <circle cx="80" cy="70" r="56" fill="url(#beanGlow)"/>
    <path d="M82 28c-4 20-6 40-6 70 0 12 4 26 0 36s-14 18-8 22c6 4 20-8 24-20 4-12 0-24 0-36 0-30-4-50 2-72-4-2-8-2-12 0z" fill="url(#beanVine)"/>
    <path d="M70 56c-10-8-30-8-26 6 4 14 18 14 30 10-8 12-6 26 8 24 14-2 14-16 6-28 12 6 26 4 28-8 2-12-12-16-24-10 6-12 4-24-8-26-12-2-16 10-14 22z" fill="url(#beanLeaf)"/>
    <path d="M64 110c-8-4-22 6-18 16 4 10 16 10 24 4 2 10 12 16 20 8 8-8 0-18-10-20 12-2 20-12 14-22-6-10-18-4-22 6-4-6-10-10-16-8-6 2-4 10 8 16z" fill="url(#beanLeaf)"/>
  </g>
</svg>
